<?xml version="1.0" standalone="no"?>
<!DOCTYPE svg PUBLIC "-//W3C//DTD SVG 20010904//EN"
 "http://www.w3.org/TR/2001/REC-SVG-20010904/DTD/svg10.dtd">
<svg version="1.0" xmlns="http://www.w3.org/2000/svg"
 width="560.000000pt" height="560.000000pt" viewBox="0 0 560.000000 560.000000"
 preserveAspectRatio="xMidYMid meet">
<metadata>
Created by potrace 1.11, written by Peter Selinger 2001-2013
</metadata>
<g transform="translate(0.000000,560.000000) scale(0.100000,-0.100000)"
fill="#000000" stroke="none">
<path d="M0 2795 l0 -2795 2800 0 2800 0 0 2795 0 2795 -1234 0 c-1222 0
-1234 0 -1239 -20 -3 -11 -10 -20 -16 -20 -15 0 -14 27 2 34 6 3 3 5 -8 3 -12
-1 -21 -11 -23 -25 -2 -12 -8 -20 -13 -17 -5 4 -9 -1 -9 -9 0 -9 -4 -16 -9
-16 -11 0 -24 48 -16 60 4 6 -130 10 -359 10 l-366 0 6 -44 c7 -49 2 -52 -86
-62 -25 -3 -52 -8 -60 -11 -8 -3 -31 -7 -50 -9 -19 -2 -64 -9 -100 -14 -87
-13 -311 -30 -321 -24 -14 8 -20 -35 -10 -73 9 -32 8 -40 -6 -51 -13 -9 -15
-15 -6 -20 12 -8 16 -60 9 -152 -5 -68 -4 -66 -16 -54 -8 8 -7 19 1 38 9 19 9
30 2 37 -8 8 -13 -1 -17 -30 -3 -23 -9 -59 -12 -81 -3 -22 -9 -40 -12 -40 -4
0 -5 -22 -4 -50 4 -51 -23 -208 -38 -224 -10 -10 -42 -12 -375 -21 -143 -4
-264 -10 -269 -15 -9 -9 -56 8 -56 21 0 19 13 38 22 33 6 -4 9 -1 6 7 -3 8
-11 15 -19 15 -8 1 -20 2 -27 3 -8 1 -11 8 -8 19 3 9 2 34 -3 54 -7 30 -5 41
10 57 21 22 25 41 9 41 -5 0 -10 5 -10 10 0 6 7 10 15 10 11 0 14 7 9 25 -4
15 -2 25 5 25 6 0 11 8 11 17 0 9 7 24 14 32 10 11 12 21 6 31 -8 13 -10 12
-10 -3 0 -10 -5 -15 -10 -12 -8 5 -7 11 1 21 14 17 36 18 41 2 2 -6 8 -9 14
-6 11 7 6 98 -6 98 -13 0 -20 -44 -7 -52 20 -12 0 -20 -37 -12 -36 6 -36 7
-16 21 21 15 21 16 3 36 -18 20 -18 20 8 14 37 -9 41 0 13 30 -22 24 -23 27
-7 39 10 7 21 10 25 8 16 -10 7 9 -9 22 -11 8 -13 13 -5 14 6 0 12 4 12 10 0
5 -6 9 -13 7 -6 -1 -11 6 -11 15 1 11 -4 15 -15 11 -9 -3 -1 5 16 18 38 28 41
39 13 39 -14 0 -20 7 -20 24 0 13 -3 33 -7 43 -5 15 -4 16 8 7 8 -6 23 -8 34
-4 19 7 19 7 0 17 -11 6 -25 8 -32 6 -6 -2 -14 1 -18 6 -3 6 0 8 8 5 11 -4 14
2 12 28 -2 18 -4 36 -4 40 -1 4 -206 7 -456 8 l-455 0 0 -2795z m810 2765 c0
-5 -8 -10 -17 -10 -15 0 -16 2 -3 10 19 12 20 12 20 0z m75 -20 c3 -6 -1 -7
-9 -4 -18 7 -21 14 -7 14 6 0 13 -4 16 -10z m-12 -62 c-7 -46 -13 -48 -13 -5
0 21 4 37 9 37 5 0 7 -15 4 -32z m2192 2 c3 -5 -1 -10 -10 -10 -9 0 -13 5 -10
10 3 6 8 10 10 10 2 0 7 -4 10 -10z m57 -32 c-8 -8 -9 -4 -5 13 4 13 8 18 11
10 2 -7 -1 -18 -6 -23z m-2314 5 c-2 -12 6 -20 27 -25 25 -6 24 -7 -9 -3 -45
5 -48 7 -40 29 8 21 26 21 22 -1z m2337 -13 c-3 -5 -1 -10 6 -10 7 0 10 -3 6
-6 -9 -9 -28 6 -22 17 4 5 8 9 11 9 3 0 2 -4 -1 -10z m-2380 -10 c3 -5 2 -10
-4 -10 -5 0 -13 5 -16 10 -3 6 -2 10 4 10 5 0 13 -4 16 -10z m139 -35 c3 -8 1
-15 -4 -15 -6 0 -10 7 -10 15 0 8 2 15 4 15 2 0 6 -7 10 -15z m-84 -17 c0 -6
-3 -8 -7 -5 -3 4 -12 2 -20 -4 -8 -8 -13 -8 -13 -1 0 10 15 19 33 21 4 1 7 -4
7 -11z m35 -29 c-5 -15 -4 -19 4 -15 6 4 11 1 11 -8 0 -8 -9 -20 -20 -26 -19
-10 -20 -9 -14 16 5 19 4 25 -5 20 -6 -4 -11 -2 -11 3 0 6 7 11 15 11 8 0 15
5 15 10 0 6 3 10 6 10 3 0 2 -10 -1 -21z m15 -69 c0 -5 -4 -10 -10 -10 -5 0
-10 5 -10 10 0 6 5 10 10 10 6 0 10 -4 10 -10z m-172 -17 c-10 -2 -26 -2 -35
0 -10 3 -2 5 17 5 19 0 27 -2 18 -5z m42 -33 c0 -5 -19 -9 -42 -9 l-43 2 35 7
c19 4 38 8 43 9 4 0 7 -3 7 -9z m-290 -30 c0 -5 -5 -10 -11 -10 -5 0 -7 5 -4
10 3 6 8 10 11 10 2 0 4 -4 4 -10z m417 -64 c0 -8 -6 -12 -14 -9 -7 3 -13 11
-13 19 0 7 6 11 13 8 8 -3 14 -11 14 -18z m1814 -14 c-6 -2 -9 -8 -6 -13 4 -5
-1 -6 -10 -3 -11 5 -14 2 -9 -10 3 -9 1 -16 -5 -16 -6 0 -11 6 -12 13 0 6 -4
3 -9 -8 -6 -13 -9 -15 -9 -5 -1 19 63 74 68 58 2 -7 -1 -14 -8 -16z m-71 8 c0
-5 -8 -10 -17 -10 -10 0 -33 -9 -52 -21 -24 -14 -37 -17 -44 -10 -8 8 -6 11 5
11 9 0 23 6 31 14 12 12 23 16 70 25 4 0 7 -3 7 -9z m-1897 -17 c-7 -2 -19 -2
-25 0 -7 3 -2 5 12 5 14 0 19 -2 13 -5z m117 -23 c5 0 11 6 13 13 3 6 6 2 6
-11 1 -12 7 -25 14 -28 8 -3 14 -18 15 -35 0 -16 -4 -27 -9 -24 -5 4 -9 1 -9
-4 0 -6 5 -11 11 -11 8 0 7 -6 -2 -16 -12 -15 -14 -13 -22 16 -5 22 -5 35 3
40 15 9 1 40 -16 33 -8 -3 -14 1 -14 10 0 8 -5 17 -12 19 -7 3 -8 9 -3 19 8
12 10 11 13 -3 2 -10 7 -18 12 -18z m1643 13 c-7 -2 -19 -2 -25 0 -7 3 -2 5
12 5 14 0 19 -2 13 -5z m97 -29 c0 -9 -7 -14 -17 -12 -25 5 -28 28 -4 28 12 0
21 -6 21 -16z m-1764 -11 c18 -24 17 -36 -2 -29 -8 3 -22 -1 -30 -9 -9 -8 -21
-15 -27 -15 -6 0 -1 7 11 16 12 8 20 20 17 25 -6 9 2 29 12 29 3 0 12 -8 19
-17z m1662 -1 c6 -18 -15 -14 -22 4 -4 10 -1 14 6 12 6 -2 14 -10 16 -16z
m-776 -32 c0 -11 1 -25 2 -32 1 -6 -5 -13 -11 -15 -9 -3 -13 7 -13 31 0 37 19
51 22 16z m-970 -5 c0 -5 -5 -10 -11 -11 -8 -2 -7 -1 0 3 8 4 7 8 -2 15 -11 8
-11 9 -1 6 8 -2 14 -8 14 -13z m1778 0 c0 -8 8 -15 18 -15 14 0 15 2 2 10 -13
8 -12 10 3 10 20 0 23 -15 5 -27 -24 -15 -36 -11 -41 13 -2 13 0 24 4 24 5 0
9 -7 9 -15z m-1813 -17 c-3 -8 -6 -5 -6 6 -1 11 2 17 5 13 3 -3 4 -12 1 -19z
m79 -27 c0 -16 -3 -17 -14 -9 -12 10 -7 19 13 28 1 0 1 -9 1 -19z m74 -27 c0
-2 -7 -4 -15 -4 -8 0 -15 4 -15 10 0 5 7 7 15 4 8 -4 15 -8 15 -10z m863 -42
c-1 -23 2 -42 6 -42 4 0 8 -17 9 -37 2 -21 7 -40 12 -41 6 -2 8 -7 5 -12 -3
-4 2 -13 10 -20 8 -7 15 -20 15 -30 0 -10 7 -21 16 -24 8 -3 12 -2 9 4 -6 10
10 15 30 10 6 -1 21 -3 35 -5 37 -3 40 -4 40 -16 0 -6 -7 -8 -16 -5 -8 3 -12
2 -9 -4 9 -15 -2 -12 -30 6 -22 15 -25 15 -25 1 0 -9 9 -19 20 -22 11 -3 20
-11 20 -16 0 -11 0 -11 -37 2 -28 9 -34 7 -58 -17 -23 -22 -26 -31 -17 -45 7
-10 8 -20 3 -23 -10 -7 -93 -21 -103 -18 -12 3 -10 -12 3 -25 18 -18 2 -31
-33 -27 -55 7 -70 6 -82 -7 -8 -9 -5 -10 12 -6 13 3 28 -1 36 -9 17 -16 30
-19 21 -4 -3 6 -1 10 5 10 7 0 10 -5 8 -12 -5 -15 -53 -30 -90 -29 -18 1 -29
-5 -33 -18 -3 -11 -13 -22 -21 -25 -8 -3 -12 -10 -9 -16 3 -5 1 -10 -4 -10
-14 0 -14 17 -1 25 13 8 13 35 0 35 -6 0 -14 -8 -17 -17 -11 -30 -53 -47 -53
-22 0 6 7 9 15 5 11 -4 15 1 15 17 0 14 -3 17 -8 10 -4 -6 -16 -11 -27 -10
-17 2 -19 -3 -16 -35 2 -29 -1 -38 -13 -38 -9 0 -16 -4 -16 -10 0 -5 -7 -10
-15 -10 -22 0 -19 9 13 39 l27 26 -32 3 c-19 2 -33 9 -33 16 0 8 -12 16 -26
19 -24 4 -26 2 -22 -25 5 -31 -9 -49 -22 -28 -5 8 -15 10 -26 6 -16 -6 -16 -8
-4 -16 10 -7 11 -10 2 -10 -6 0 -11 -3 -11 -7 3 -19 -2 -34 -10 -29 -5 3 -8
17 -8 31 0 31 -7 40 -25 29 -7 -5 -21 -7 -30 -6 -10 2 -18 -2 -18 -7 0 -11 13
-15 39 -12 7 2 11 -3 9 -10 -5 -15 -57 -19 -65 -5 -4 5 -1 6 7 1 9 -5 10 -2 5
14 -5 17 -1 23 22 32 15 7 41 11 57 10 19 -2 26 1 21 8 -7 12 -42 11 -62 -2
-8 -5 -13 -3 -13 6 0 8 -7 28 -15 43 -13 26 -15 27 -15 7 0 -28 -17 -38 -38
-22 -14 11 -15 11 -4 -1 18 -21 15 -40 -8 -40 -11 0 -20 7 -20 15 0 8 -7 15
-16 15 -20 0 -14 34 6 36 32 3 34 6 13 14 -13 5 -23 17 -23 26 0 14 -3 14 -15
4 -9 -7 -14 -19 -11 -27 3 -7 1 -13 -4 -13 -6 0 -10 7 -10 15 0 9 -9 15 -25
15 -20 0 -25 5 -25 25 0 24 -19 37 -21 15 -1 -5 -2 -14 -3 -20 0 -5 -5 -9 -11
-8 -14 3 -6 31 12 42 13 7 13 10 2 17 -11 7 -11 14 -2 40 14 36 9 51 -12 42
-8 -3 -15 0 -15 6 0 13 29 14 49 2 10 -6 10 -13 2 -28 -5 -11 -7 -23 -4 -27 3
-3 1 -6 -6 -6 -9 0 -8 -4 3 -15 20 -20 26 -19 26 5 0 21 15 27 25 9 4 -5 -1
-20 -12 -32 -18 -22 -18 -22 3 -4 11 9 28 17 38 17 9 0 15 4 12 9 -8 12 60 19
78 9 9 -5 13 -15 9 -26 -6 -15 -5 -15 10 -3 16 12 17 12 11 -5 -4 -10 -3 -16
1 -12 5 5 14 -1 22 -11 14 -21 64 -24 92 -7 11 7 13 5 8 -7 -3 -10 -2 -17 2
-17 5 0 16 -3 24 -6 10 -3 18 2 22 16 5 16 10 18 20 10 10 -8 15 -8 20 0 5 7
21 9 46 5 42 -7 42 -8 43 67 0 22 3 25 17 17 25 -13 32 -11 26 5 -4 11 3 14
31 14 20 -1 65 -1 99 0 l62 2 7 35 c3 19 9 35 13 35 3 0 7 23 8 51 1 28 7 57
14 65 9 11 8 14 -2 14 -12 0 -12 2 0 9 8 5 12 18 8 30 -3 12 -1 24 4 27 5 3 9
10 9 15 0 6 -4 7 -10 4 -5 -3 -10 3 -10 15 0 15 5 20 17 18 14 -2 17 -13 16
-46z m-843 8 c0 -5 -10 -14 -21 -21 -17 -9 -23 -8 -30 2 -15 23 -10 29 21 29
17 0 30 -4 30 -10z m-74 -150 c9 0 12 4 9 10 -3 6 1 7 9 4 17 -7 21 -31 7 -53
-7 -10 -10 -11 -16 -1 -6 10 -11 9 -20 -4 -12 -15 -13 -15 -19 0 -3 8 -3 28 1
42 3 15 8 21 11 14 2 -6 10 -12 18 -12z m64 -5 c0 -14 -4 -25 -10 -25 -5 0
-10 -7 -10 -15 0 -8 5 -15 11 -15 5 0 8 4 5 9 -3 5 0 14 8 20 11 9 15 8 20 -5
10 -25 7 -34 -10 -34 -9 0 -12 -5 -8 -12 4 -7 -3 -4 -14 7 -17 16 -20 27 -15
58 6 42 23 50 23 12z m-137 -25 c15 -28 15 -29 -4 -20 -10 6 -19 20 -19 30 0
28 6 25 23 -10z m1452 -10 c-3 -5 -10 -10 -16 -10 -5 0 -9 5 -9 10 0 6 7 10
16 10 8 0 12 -4 9 -10z m52 4 c-3 -3 -12 -4 -19 -1 -8 3 -5 6 6 6 11 1 17 -2
13 -5z m-280 -10 c-3 -3 -12 -4 -19 -1 -8 3 -5 6 6 6 11 1 17 -2 13 -5z m110
-10 c-3 -3 -12 -4 -19 -1 -8 3 -5 6 6 6 11 1 17 -2 13 -5z m-1212 -64 c3 -6
-1 -7 -9 -4 -18 7 -21 14 -7 14 6 0 13 -4 16 -10z m32 -23 c-6 -13 -17 -24
-24 -24 -21 0 -15 21 10 33 12 7 23 12 24 13 0 0 -4 -9 -10 -22z m-53 -2 c-7
-16 -24 -21 -24 -6 0 8 7 13 27 20 1 1 0 -6 -3 -14z m963 -22 c-3 -3 -11 -2
-17 2 -9 6 -9 10 1 16 14 8 27 -7 16 -18z m-926 -56 c-8 -8 -11 -7 -11 4 0 20
13 34 18 19 3 -7 -1 -17 -7 -23z m874 -7 c-8 -13 -45 -13 -65 0 -11 7 -3 10
28 10 26 0 41 -4 37 -10z m110 -20 c3 -5 1 -10 -4 -10 -6 0 -11 5 -11 10 0 6
2 10 4 10 3 0 8 -4 11 -10z m-151 -6 c23 -9 19 -21 -9 -28 -14 -4 -25 -11 -25
-16 0 -5 -7 -7 -15 -4 -19 8 -20 24 -1 24 8 0 16 7 20 15 6 17 8 17 30 9z
m-760 -40 c12 -5 13 -9 3 -19 -9 -9 -14 -10 -19 -1 -16 23 -10 30 16 20z m-77
-26 c-3 -8 -6 -5 -6 6 -1 11 2 17 5 13 3 -3 4 -12 1 -19z m823 1 c0 -11 -4
-18 -10 -14 -5 3 -7 12 -3 20 7 21 13 19 13 -6z m-903 -21 c-3 -8 -6 -5 -6 6
-1 11 2 17 5 13 3 -3 4 -12 1 -19z m809 -8 c15 0 24 -3 21 -7 -4 -3 1 -16 10
-27 10 -12 11 -15 3 -8 -19 16 -40 15 -40 -3 0 -9 -8 -14 -23 -13 -13 1 -24 8
-24 16 0 8 7 12 18 9 10 -3 20 0 22 7 3 8 -8 10 -34 8 -39 -4 -49 4 -27 26 7
7 17 8 29 2 10 -6 30 -10 45 -10z m-969 -22 c-3 -7 -5 -2 -5 12 0 14 2 19 5
13 2 -7 2 -19 0 -25z m483 22 c0 -5 -5 -10 -11 -10 -5 0 -7 5 -4 10 3 6 8 10
11 10 2 0 4 -4 4 -10z m-693 -26 c-3 -3 -12 -4 -19 -1 -8 3 -5 6 6 6 11 1 17
-2 13 -5z m608 -4 c3 -6 -1 -7 -9 -4 -18 7 -21 14 -7 14 6 0 13 -4 16 -10z
m305 -6 c0 -2 -9 -4 -20 -4 -11 0 -20 4 -20 9 0 5 9 7 20 4 11 -3 20 -7 20 -9z
m351 -9 c0 -5 -5 -11 -13 -13 -10 -3 -10 -1 1 6 11 8 10 11 -5 15 -16 5 -16 6
-1 4 10 -1 18 -6 18 -12z m-251 -11 c0 -8 -5 -12 -10 -9 -6 4 -8 11 -5 16 9
14 15 11 15 -7z m90 -4 c0 -5 -2 -10 -4 -10 -3 0 -8 5 -11 10 -3 6 -1 10 4 10
6 0 11 -4 11 -10z m-35 -20 c3 -5 -3 -10 -14 -10 -12 0 -21 5 -21 10 0 6 6 10
14 10 8 0 18 -4 21 -10z m-18 -32 c35 2 54 -15 32 -29 -23 -15 -34 -10 -13 5
17 14 16 15 -23 13 -25 -1 -48 4 -55 12 -11 12 -10 13 7 6 11 -5 34 -8 52 -7z
m-247 -2 c0 -11 -19 -15 -25 -6 -3 5 1 10 9 10 9 0 16 -2 16 -4z m70 -11 c-7
-8 -17 -12 -22 -9 -6 4 -5 10 3 15 22 14 33 10 19 -6z m64 0 c3 -8 2 -15 -3
-15 -5 0 -14 7 -21 15 -10 12 -10 15 3 15 8 0 17 -7 21 -15z m178 -21 c-9 -16
-10 -14 -9 8 1 15 6 23 11 18 4 -4 4 -16 -2 -26z m-232 -9 c-7 -8 -17 -15 -23
-15 -5 0 -2 9 8 20 21 23 35 19 15 -5z m100 15 c0 -5 -5 -10 -11 -10 -5 0 -7
5 -4 10 3 6 8 10 11 10 2 0 4 -4 4 -10z m-170 -10 c0 -5 -4 -10 -10 -10 -5 0
-10 5 -10 10 0 6 5 10 10 10 6 0 10 -4 10 -10z m-59 -24 c5 3 9 0 9 -5 0 -6
-15 -11 -32 -11 -32 1 -32 1 -13 16 12 9 21 11 23 4 2 -5 8 -8 13 -4z m182 7
c-7 -2 -19 -2 -25 0 -7 3 -2 5 12 5 14 0 19 -2 13 -5z m-133 -23 c8 -5 11 -10
5 -10 -5 0 -17 5 -25 10 -8 5 -10 10 -5 10 6 0 17 -5 25 -10z m47 4 c-3 -3
-12 -4 -19 -1 -8 3 -5 6 6 6 11 1 17 -2 13 -5z m193 -4 c0 -5 -2 -10 -4 -10
-3 0 -8 5 -11 10 -3 6 -1 10 4 10 6 0 11 -4 11 -10z m-635 -10 c-3 -5 -14 -10
-23 -10 -15 0 -15 2 -2 10 20 13 33 13 25 0z m-265 -10 c0 -5 -5 -10 -11 -10
-5 0 -7 5 -4 10 3 6 8 10 11 10 2 0 4 -4 4 -10z m165 0 c3 -5 1 -10 -4 -10 -6
0 -11 5 -11 10 0 6 2 10 4 10 3 0 8 -4 11 -10z m298 2 c36 -7 37 -8 16 -20
-12 -8 -18 -9 -15 -3 4 6 -9 13 -31 16 -63 10 -69 13 -38 13 17 1 47 -2 68 -6z
m262 -12 c7 -12 -2 -12 -30 0 -19 8 -19 9 2 9 12 1 25 -3 28 -9z m-518 -6 c-3
-3 -12 -4 -19 -1 -8 3 -5 6 6 6 11 1 17 -2 13 -5z m60 0 c-3 -3 -12 -4 -19 -1
-8 3 -5 6 6 6 11 1 17 -2 13 -5z m-490 -10 c-3 -3 -12 -4 -19 -1 -8 3 -5 6 6
6 11 1 17 -2 13 -5z m380 -16 c-3 -8 -6 -5 -6 6 -1 11 2 17 5 13 3 -3 4 -12 1
-19z m516 5 c-7 -2 -21 -2 -30 0 -10 3 -4 5 12 5 17 0 24 -2 18 -5z m67 -7 c0
-3 -4 -8 -10 -11 -5 -3 -10 -1 -10 4 0 6 5 11 10 11 6 0 10 -2 10 -4z m50 -11
c0 -9 -9 -15 -22 -14 -17 1 -19 2 -5 6 9 2 17 9 17 14 0 5 2 9 5 9 3 0 5 -7 5
-15z m-386 -50 c3 -8 1 -15 -4 -15 -6 0 -10 7 -10 15 0 8 2 15 4 15 2 0 6 -7
10 -15z m413 -31 c-3 -3 -12 -4 -19 -1 -8 3 -5 6 6 6 11 1 17 -2 13 -5z m-47
-14 c0 -5 -2 -10 -4 -10 -3 0 -8 5 -11 10 -3 6 -1 10 4 10 6 0 11 -4 11 -10z
m-143 -156 c-3 -3 -12 -4 -19 -1 -8 3 -5 6 6 6 11 1 17 -2 13 -5z m10 -36 c-3
-8 -6 -5 -6 6 -1 11 2 17 5 13 3 -3 4 -12 1 -19z m-73 -69 c-6 -11 -24 -2 -24
11 0 5 7 7 15 4 8 -4 12 -10 9 -15z m-19 -22 c23 -16 31 -27 25 -36 -4 -8 -12
-11 -18 -7 -6 3 -22 2 -36 -4 -21 -8 -26 -7 -26 7 0 9 8 22 18 30 16 14 16 14
0 9 -12 -3 -18 0 -18 9 0 21 16 19 55 -8z m10 -77 c3 -5 -3 -10 -15 -10 -12 0
-18 5 -15 10 3 6 10 10 15 10 5 0 12 -4 15 -10z m-36 -218 c4 -9 5 -26 1 -37
-7 -18 -9 -18 -19 8 -6 16 -16 37 -22 48 -9 19 -9 19 10 10 11 -7 25 -19 30
-29z m61 -8 c0 -2 -7 -4 -15 -4 -8 0 -15 4 -15 10 0 5 7 7 15 4 8 -4 15 -8 15
-10z m-140 -264 c0 -5 -2 -10 -4 -10 -3 0 -8 5 -11 10 -3 6 -1 10 4 10 6 0 11
-4 11 -10z m-73 -293 c-2 -7 -11 -13 -21 -13 -12 -2 -13 -1 -1 3 19 6 19 13
-2 30 -16 13 -16 13 5 3 13 -6 21 -17 19 -23z m130 -393 c-3 -3 -12 -4 -19 -1
-8 3 -5 6 6 6 11 1 17 -2 13 -5z m-101 -74 c0 -12 -4 -16 -9 -11 -5 5 -6 14
-3 20 10 15 12 14 12 -9z m-26 -20 c0 -5 -15 -10 -32 -9 -31 1 -32 1 -8 9 35
11 40 11 40 0z m2784 -2134 c59 -39 134 -118 117 -124 -6 -2 -11 -10 -11 -17
0 -16 -34 -38 -43 -28 -4 3 -2 15 4 26 10 17 3 28 -48 81 -101 105 -106 120
-19 62z"/>
<path d="M1035 4580 c-3 -5 -1 -10 4 -10 6 0 11 5 11 10 0 6 -2 10 -4 10 -3 0
-8 -4 -11 -10z"/>
<path d="M960 4554 c-16 -8 -19 -14 -9 -14 8 0 24 7 35 15 24 18 7 18 -26 -1z"/>
<path d="M1580 4556 c0 -2 9 -6 20 -9 11 -3 18 -1 14 4 -5 9 -34 13 -34 5z"/>
<path d="M1055 4509 c-9 -14 -2 -20 14 -10 8 6 9 11 3 15 -6 3 -14 1 -17 -5z"/>
<path d="M1285 4453 c31 -31 56 -37 62 -14 3 11 11 17 18 15 7 -3 16 0 20 7 6
9 0 10 -21 5 -40 -10 -56 -10 -79 -1 -19 9 -19 9 0 -12z"/>
<path d="M1354 5573 c3 -8 6 -24 6 -35 0 -14 5 -18 15 -14 8 3 15 0 15 -7 0
-9 3 -8 9 1 4 8 12 14 17 15 5 1 8 11 7 22 -1 12 0 14 3 5 3 -12 14 -15 39
-12 19 2 32 8 29 13 -3 5 2 9 10 9 8 0 17 4 20 9 3 5 -35 9 -85 9 -76 0 -89
-3 -85 -15z"/>
<path d="M1720 5577 c0 -8 11 -14 30 -14 42 0 46 23 4 25 -23 2 -34 -2 -34
-11z"/>
<path d="M2059 5586 c-2 -2 -38 -6 -81 -9 -123 -10 -147 -19 -148 -58 0 -24
55 -32 90 -14 16 8 36 12 44 9 10 -4 16 -1 16 7 0 10 3 10 12 1 7 -7 17 -12
23 -12 5 0 3 5 -5 10 -22 14 5 13 32 -1 15 -8 19 -8 14 0 -5 7 1 11 14 11 12
0 19 -4 16 -8 -2 -4 4 -8 15 -8 10 0 19 4 19 8 0 4 9 8 20 8 11 0 20 5 20 10
0 6 -5 10 -12 10 -6 0 -9 3 -6 6 4 3 15 1 26 -5 13 -7 22 -7 30 1 14 14 -3 38
-27 38 -14 0 -14 -2 -1 -10 13 -8 12 -10 -2 -10 -10 0 -18 5 -18 10 0 6 -11
10 -25 10 -14 0 -25 -5 -25 -12 0 -9 -3 -9 -12 0 -12 12 -21 15 -29 8z m-119
-34 c0 -13 -12 -22 -22 -16 -10 6 -1 24 13 24 5 0 9 -4 9 -8z m-60 -12 c0 -5
-4 -10 -10 -10 -5 0 -10 5 -10 10 0 6 5 10 10 10 6 0 10 -4 10 -10z"/>
<path d="M1286 5545 c-4 -14 -11 -25 -16 -25 -5 0 -7 7 -4 15 4 9 0 15 -10 15
-9 0 -16 -7 -16 -15 0 -18 -12 -19 -28 -3 -14 14 -46 -8 -38 -28 3 -7 -2 -15
-10 -18 -9 -4 -14 1 -14 14 0 26 -17 26 -25 0 -9 -27 1 -40 31 -40 14 0 22 4
19 10 -4 6 8 10 29 10 19 0 37 4 40 9 3 5 15 7 25 4 10 -3 22 0 25 6 4 6 18
11 32 11 29 0 30 7 5 38 -25 29 -37 28 -45 -3z"/>
<path d="M1751 5501 c-20 -13 -9 -46 17 -49 16 -3 22 2 22 16 0 25 -22 43 -39
33z"/>
<path d="M1545 5490 c-3 -5 -15 -10 -27 -10 -15 0 -18 -3 -10 -12 6 -7 11 -17
11 -23 1 -12 51 -17 51 -5 0 5 -4 11 -9 14 -5 3 -7 15 -4 26 6 21 -2 27 -12
10z"/>
<path d="M1434 5465 c-4 -8 -9 -13 -13 -11 -11 7 -141 -25 -141 -34 0 -5 5
-12 10 -15 6 -3 10 -15 10 -26 0 -10 5 -19 10 -19 6 0 10 5 10 11 0 5 5 7 10
4 6 -3 16 -3 23 2 6 4 30 9 52 10 22 1 41 7 43 12 2 6 10 7 18 4 16 -6 19 12
4 22 -5 3 -10 17 -10 31 0 26 -17 33 -26 9z m-103 -62 c-12 -20 -14 -14 -5 12
4 9 9 14 11 11 3 -2 0 -13 -6 -23z"/>
<path d="M1172 5397 c-8 -9 -20 -13 -28 -10 -8 3 -14 1 -14 -5 0 -45 51 -73
81 -46 20 18 25 59 9 69 -5 3 -10 -1 -10 -9 0 -21 -18 -20 -22 1 -3 15 -4 15
-16 0z m23 -47 c3 -5 1 -10 -4 -10 -6 0 -11 5 -11 10 0 6 2 10 4 10 3 0 8 -4
11 -10z"/>
<path d="M1061 5229 c-18 -29 -19 -59 -2 -59 3 0 12 -4 20 -9 12 -8 12 -12 -2
-26 -10 -9 -17 -25 -17 -34 0 -23 29 -49 38 -35 4 6 16 11 27 11 41 2 100 17
111 28 9 8 8 16 -2 29 -12 17 -15 18 -37 3 -16 -10 -28 -12 -34 -6 -12 12 -43
1 -43 -15 0 -7 5 -17 12 -24 7 -7 9 -12 5 -12 -18 0 -43 39 -40 60 5 32 12 38
24 20 7 -13 10 -13 18 -1 5 7 14 10 20 7 6 -4 11 0 11 8 0 9 -4 16 -10 16 -5
0 -6 7 -3 17 5 11 3 14 -6 8 -10 -5 -11 -2 -6 14 8 26 -22 30 -33 4 -4 -10
-15 -19 -24 -19 -25 -2 -22 13 3 19 12 3 18 10 14 16 -11 19 -25 12 -44 -20z"/>
<path d="M1207 5253 c-14 -4 -17 -11 -13 -26 3 -12 6 -27 6 -33 0 -6 12 -16
28 -23 23 -10 25 -9 10 2 -10 8 -16 16 -14 18 7 9 15 69 8 68 -4 -1 -15 -3
-25 -6z"/>
<path d="M936 5241 c-4 -7 -5 -15 -2 -18 9 -9 19 4 14 18 -4 11 -6 11 -12 0z"/>
<path d="M1400 5148 c-15 -16 -17 -24 -8 -29 7 -5 9 -11 6 -14 -11 -12 -35 18
-30 37 6 23 -14 24 -26 2 -5 -9 -15 -14 -21 -10 -6 4 -9 11 -6 16 3 4 -4 6
-15 3 -11 -3 -20 -9 -20 -13 0 -5 -3 -15 -6 -24 -7 -18 35 -39 51 -26 14 12
105 7 106 -5 0 -5 5 1 10 14 7 17 6 27 -2 31 -8 6 -8 9 0 14 12 8 6 26 -9 26
-5 0 -18 -10 -30 -22z"/>
<path d="M1330 5080 c0 -5 5 -10 10 -10 6 0 10 5 10 10 0 6 -4 10 -10 10 -5 0
-10 -4 -10 -10z"/>
<path d="M1559 5064 c-6 -8 -18 -14 -26 -14 -8 0 -20 -14 -27 -30 -7 -17 -15
-28 -19 -24 -3 3 -1 14 6 25 17 27 0 36 -34 17 -16 -9 -29 -13 -29 -8 0 6 -7
10 -15 10 -8 0 -14 -4 -12 -9 1 -5 -2 -9 -7 -9 -5 0 -13 -6 -18 -14 -6 -9 -8
-8 -6 7 2 12 -4 21 -14 23 -11 2 -18 -3 -18 -12 0 -9 -6 -13 -15 -10 -8 3 -13
11 -12 16 1 6 -4 13 -10 15 -7 3 -13 -1 -13 -9 0 -10 -3 -9 -10 2 -9 13 -11
13 -19 0 -6 -8 -24 -14 -45 -13 -27 1 -37 -4 -42 -19 -6 -20 -6 -20 -20 0 -11
15 -23 19 -60 16 -56 -3 -59 -6 -42 -36 18 -31 30 -39 52 -32 10 4 16 2 13 -3
-4 -5 0 -10 8 -10 8 0 11 5 8 10 -4 6 5 8 20 5 15 -3 24 -1 21 3 -7 12 -1 11
33 -2 15 -5 25 -7 21 -3 -10 9 17 33 35 30 8 -1 23 -8 33 -16 13 -11 16 -11
10 -2 -6 11 2 13 41 11 27 -1 54 1 60 4 7 4 29 5 51 1 26 -4 42 -2 47 5 5 9
14 8 32 -4 19 -13 27 -14 39 -4 8 6 14 9 14 5 0 -3 9 2 20 11 11 9 16 20 11
23 -5 3 -11 16 -12 29 -4 28 -32 36 -50 15z"/>
<path d="M1064 4869 c-14 -22 -22 -44 -19 -47 9 -9 65 54 65 73 0 27 -19 16
-46 -26z"/>
<path d="M1211 4891 c-6 -10 -9 -20 -8 -22 1 -2 -3 1 -9 8 -15 17 -24 16 -40
-4 -19 -25 -17 -51 4 -55 35 -7 75 5 79 23 3 11 9 19 14 19 12 0 11 -7 -1 -30
-9 -17 -8 -18 20 -3 17 8 30 22 30 33 0 10 3 25 6 33 9 24 -83 22 -95 -2z"/>
<path d="M1363 4845 c-3 -9 -3 -18 0 -21 10 -10 47 7 47 22 0 19 -39 18 -47
-1z"/>
<path d="M880 4835 c0 -8 5 -15 10 -15 6 0 10 7 10 15 0 8 -4 15 -10 15 -5 0
-10 -7 -10 -15z"/>
<path d="M1456 4825 c-3 -9 0 -18 9 -21 21 -8 47 3 43 19 -7 18 -45 20 -52 2z"/>
<path d="M880 4799 c0 -5 5 -7 10 -4 6 3 10 8 10 11 0 2 -4 4 -10 4 -5 0 -10
-5 -10 -11z"/>
<path d="M1198 4803 c7 -3 16 -2 19 1 4 3 -2 6 -13 5 -11 0 -14 -3 -6 -6z"/>
<path d="M1387 4783 c-4 -3 -7 -15 -7 -26 0 -13 5 -17 16 -13 9 3 20 6 25 6 5
0 9 9 9 20 0 20 -28 28 -43 13z"/>
</g>
</svg>
