<?xml version="1.0" encoding="utf-8"?>
<!-- Generator: Adobe Illustrator 16.0.4, SVG Export Plug-In . SVG Version: 6.00 Build 0)  -->
<!DOCTYPE svg PUBLIC "-//W3C//DTD SVG 1.1//EN" "http://www.w3.org/Graphics/SVG/1.1/DTD/svg11.dtd">
<svg version="1.1" id="Ebene_1" xmlns="http://www.w3.org/2000/svg" xmlns:xlink="http://www.w3.org/1999/xlink" x="0px" y="0px"
	 width="703.571px" height="297.857px" viewBox="0 0 703.571 297.857" enable-background="new 0 0 703.571 297.857"
	 xml:space="preserve">
<g>
	<path fill="#0C090A" d="M321.752,151.8h-23.982c-0.618,0-1.12,0.501-1.12,1.121v11.725c0,0.619,0.502,1.123,1.12,1.123h9.355
		v14.566c0,0-2.101,0.715-7.908,0.715c-6.852,0-16.423-2.502-16.423-23.549c0-21.051,9.967-23.821,19.323-23.821
		c8.1,0,11.59,1.425,13.81,2.112c0.698,0.214,1.343-0.48,1.343-1.099l2.675-11.329c0-0.29-0.097-0.64-0.428-0.876
		c-0.902-0.643-6.402-3.721-20.299-3.721c-16.01,0-32.432,6.811-32.432,39.554c0,32.742,18.802,37.623,34.646,37.623
		c13.119,0,21.077-5.605,21.077-5.605c0.328-0.18,0.363-0.641,0.363-0.85V152.92C322.872,152.301,322.371,151.8,321.752,151.8z"/>
	<path fill="#0C090A" d="M445.341,122.69c0-0.624-0.493-1.128-1.112-1.128h-13.503c-0.617,0-1.118,0.504-1.118,1.128
		c0,0.002,0.004,26.094,0.004,26.094h-21.048V122.69c0-0.624-0.497-1.128-1.114-1.128h-13.502c-0.614,0-1.116,0.504-1.116,1.128
		v70.656c0,0.625,0.502,1.131,1.116,1.131h13.502c0.617,0,1.114-0.506,1.114-1.131v-30.221h21.048c0,0-0.037,30.219-0.037,30.221
		c0,0.625,0.501,1.131,1.118,1.131h13.534c0.62,0,1.113-0.506,1.114-1.131V122.69z"/>
	<g>
		<g>
			<path fill="#0C090A" d="M347.232,131.962c0-4.863-3.898-8.791-8.708-8.791c-4.804,0-8.705,3.928-8.705,8.791
				c0,4.857,3.901,8.797,8.705,8.797C343.334,140.759,347.232,136.819,347.232,131.962z"/>
			<path fill="#0C090A" d="M346.268,178.442c0-1.809,0-32.615,0-32.615c0-0.619-0.5-1.126-1.118-1.126h-13.46
				c-0.618,0-1.17,0.637-1.17,1.256c0,0,0,39.247,0,46.729c0,1.373,0.855,1.781,1.963,1.781c0,0,5.745,0,12.127,0
				c1.332,0,1.658-0.654,1.658-1.803C346.268,190.159,346.268,180.348,346.268,178.442z"/>
		</g>
	</g>
	<path fill="#0C090A" d="M496.657,144.807H483.26c-0.616,0-1.116,0.507-1.116,1.13v34.646c0,0-3.404,2.49-8.235,2.49
		s-6.112-2.191-6.112-6.922c0-4.736,0-30.214,0-30.214c0-0.623-0.5-1.13-1.114-1.13h-13.6c-0.614,0-1.117,0.507-1.117,1.13
		c0,0,0,18.45,0,32.501s7.831,17.49,18.605,17.49c8.838,0,15.964-4.885,15.964-4.885s0.341,2.574,0.493,2.879
		c0.153,0.305,0.553,0.613,0.986,0.613l8.65-0.039c0.614,0,1.117-0.508,1.117-1.129l-0.004-47.431
		C497.777,145.314,497.274,144.807,496.657,144.807z"/>
	<path fill="#0C090A" d="M533.28,143.221c-7.609,0-12.786,3.396-12.786,3.396V122.69c0-0.624-0.499-1.128-1.114-1.128h-13.541
		c-0.616,0-1.116,0.504-1.116,1.128v70.656c0,0.625,0.5,1.131,1.118,1.131c0.002,0,9.392,0,9.395,0c0.423,0,0.743-0.217,0.98-0.6
		c0.232-0.379,0.571-3.258,0.571-3.258s5.536,5.248,16.018,5.248c12.306,0,19.363-6.242,19.363-28.021
		S540.896,143.221,533.28,143.221z M527.996,183.032c-4.648-0.143-7.801-2.252-7.801-2.252v-22.375c0,0,3.111-1.906,6.927-2.248
		c4.825-0.431,9.474,1.026,9.474,12.537C536.596,180.831,534.498,183.227,527.996,183.032z"/>
	<path fill="#0C090A" d="M385.075,144.695h-10.129c0,0-0.015-13.379-0.015-13.381c0-0.507-0.262-0.76-0.847-0.76h-13.803
		c-0.537,0-0.824,0.236-0.824,0.752v13.828c0,0-6.918,1.669-7.386,1.804c-0.464,0.135-0.808,0.565-0.808,1.077v8.69
		c0,0.624,0.499,1.129,1.117,1.129h7.077c0,0,0,9.088,0,20.904c0,15.527,10.891,17.053,18.24,17.053c3.357,0,7.374-1.08,8.037-1.324
		c0.401-0.146,0.635-0.564,0.635-1.014l0.011-9.559c0-0.623-0.525-1.129-1.118-1.129c-0.592,0-2.101,0.242-3.655,0.242
		c-4.976,0-6.661-2.314-6.661-5.309c0-2.992-0.002-19.865-0.002-19.865h10.131c0.617,0,1.117-0.505,1.117-1.129v-10.884
		C386.192,145.197,385.692,144.695,385.075,144.695z"/>
</g>
<g>
	<path fill-rule="evenodd" clip-rule="evenodd" fill="#0F0C0D" d="M179.155,96.673c-34.359,0-62.22,27.855-62.22,62.217
		c0,27.49,17.827,50.812,42.549,59.04c3.109,0.575,4.252-1.351,4.252-2.994c0-1.483-0.058-6.386-0.084-11.583
		c-17.31,3.763-20.962-7.342-20.962-7.342c-2.829-7.191-6.908-9.104-6.908-9.104c-5.645-3.861,0.426-3.783,0.426-3.783
		c6.247,0.438,9.537,6.413,9.537,6.413c5.55,9.511,14.555,6.762,18.107,5.172c0.558-4.021,2.169-6.768,3.95-8.321
		c-13.82-1.571-28.348-6.908-28.348-30.748c0-6.792,2.431-12.343,6.411-16.701c-0.646-1.567-2.777-7.895,0.602-16.465
		c0,0,5.226-1.672,17.115,6.378c4.962-1.379,10.285-2.069,15.574-2.094c5.286,0.024,10.613,0.714,15.585,2.094
		c11.877-8.05,17.093-6.378,17.093-6.378c3.387,8.57,1.258,14.897,0.612,16.465c3.988,4.358,6.403,9.909,6.403,16.701
		c0,23.898-14.555,29.158-28.41,30.7c2.231,1.93,4.22,5.717,4.22,11.521c0,8.325-0.072,15.026-0.072,17.075
		c0,1.655,1.121,3.596,4.274,2.986c24.708-8.237,42.513-31.552,42.513-59.032C241.372,124.528,213.515,96.673,179.155,96.673z"/>
	<path fill="#0F0C0D" d="M140.501,186.004c-0.137,0.31-0.624,0.402-1.066,0.188c-0.453-0.203-0.704-0.623-0.56-0.934
		c0.135-0.317,0.622-0.406,1.073-0.195C140.399,185.268,140.657,185.694,140.501,186.004L140.501,186.004z M139.735,185.437"/>
	<path fill="#0F0C0D" d="M143.021,188.815c-0.296,0.274-0.877,0.147-1.27-0.287c-0.409-0.435-0.483-1.015-0.183-1.294
		c0.306-0.273,0.869-0.146,1.275,0.288C143.252,187.96,143.331,188.536,143.021,188.815L143.021,188.815z M142.427,188.177"/>
	<path fill="#0F0C0D" d="M145.474,192.397c-0.38,0.266-1.004,0.019-1.391-0.535c-0.38-0.553-0.38-1.217,0.01-1.482
		c0.384-0.266,1-0.026,1.391,0.521C145.864,191.463,145.864,192.127,145.474,192.397L145.474,192.397z M145.474,192.397"/>
	<path fill="#0F0C0D" d="M148.834,195.861c-0.34,0.376-1.066,0.273-1.598-0.239c-0.545-0.502-0.696-1.214-0.354-1.59
		c0.346-0.377,1.077-0.27,1.612,0.239C149.034,194.772,149.199,195.489,148.834,195.861L148.834,195.861z M148.834,195.861"/>
	<path fill="#0F0C0D" d="M153.471,197.871c-0.151,0.487-0.849,0.709-1.554,0.501c-0.704-0.213-1.165-0.784-1.022-1.275
		c0.145-0.491,0.849-0.723,1.557-0.501C153.157,196.808,153.618,197.374,153.471,197.871L153.471,197.871z M153.471,197.871"/>
	<path fill="#0F0C0D" d="M158.564,198.244c0.016,0.513-0.582,0.938-1.32,0.947c-0.745,0.017-1.346-0.398-1.354-0.903
		c0-0.52,0.583-0.939,1.328-0.952C157.957,197.322,158.564,197.734,158.564,198.244L158.564,198.244z M158.564,198.244"/>
	<path fill="#0F0C0D" d="M163.301,197.436c0.089,0.501-0.424,1.015-1.159,1.151c-0.722,0.133-1.39-0.177-1.483-0.672
		c-0.09-0.514,0.433-1.028,1.155-1.161C162.549,196.627,163.209,196.927,163.301,197.436L163.301,197.436z M163.301,197.436"/>
</g>
</svg>
