<?xml version="1.0" encoding="utf-8"?>
<!-- Generator: Adobe Illustrator 16.0.4, SVG Export Plug-In . SVG Version: 6.00 Build 0)  -->
<!DOCTYPE svg PUBLIC "-//W3C//DTD SVG 1.1//EN" "http://www.w3.org/Graphics/SVG/1.1/DTD/svg11.dtd">
<svg version="1.1" xmlns="http://www.w3.org/2000/svg" xmlns:xlink="http://www.w3.org/1999/xlink" x="0px" y="0px" width="840.3px"
	 height="215.805px" viewBox="0 0 840.3 215.805" enable-background="new 0 0 840.3 215.805" xml:space="preserve">
<g id="Content">
	<path fill="#1DA1F2" d="M273.488,141.658c33.18,0,51.325-27.489,51.325-51.325c0-0.781-0.016-1.559-0.052-2.332
		c3.522-2.546,6.584-5.724,8.999-9.34c-3.232,1.436-6.71,2.403-10.359,2.839c3.724-2.232,6.584-5.767,7.933-9.979
		c-3.486,2.066-7.346,3.569-11.454,4.379c-3.292-3.506-7.98-5.699-13.167-5.699c-9.963,0-18.042,8.078-18.042,18.037
		c0,1.416,0.159,2.792,0.467,4.113c-14.991-0.754-28.285-7.933-37.182-18.847c-1.55,2.665-2.443,5.763-2.443,9.066
		c0,6.258,3.186,11.783,8.028,15.016c-2.958-0.091-5.739-0.904-8.17-2.257c-0.004,0.075-0.004,0.151-0.004,0.23
		c0,8.737,6.219,16.03,14.472,17.685c-1.515,0.412-3.108,0.635-4.755,0.635c-1.163,0-2.292-0.116-3.391-0.325
		c2.296,7.166,8.956,12.382,16.852,12.529c-6.175,4.838-13.953,7.722-22.404,7.722c-1.456,0-2.891-0.083-4.303-0.25
		C253.82,138.672,263.299,141.658,273.488,141.658"/>
	<g>
		<path fill="#14171A" d="M354.123,83.316V70.201h58.127v13.115h-21.264v57.829h-15.6V83.316H354.123z"/>
		<path fill="#14171A" d="M460.639,141.146l-9.142-34.479h-0.198l-8.744,34.479h-14.606l-16.295-51.37h14.904l9.439,34.876h0.198
			l8.545-34.876h13.712l8.744,34.776h0.199l9.439-34.776h14.507l-16.196,51.37H460.639z"/>
		<path fill="#14171A" d="M495.216,81.826V70.201h14.109v11.625H495.216z M509.325,89.775v51.37h-14.109v-51.37H509.325z"/>
		<path fill="#14171A" d="M546.188,89.775v9.439h-10.334v25.437c0,2.385,0.397,3.975,1.192,4.77s2.385,1.192,4.77,1.192
			c0.795,0,1.556-0.033,2.285-0.1c0.729-0.065,1.424-0.164,2.087-0.298v10.93c-1.192,0.198-2.519,0.331-3.975,0.397
			c-1.458,0.065-2.881,0.1-4.272,0.1c-2.186,0-4.257-0.149-6.21-0.447c-1.955-0.298-3.677-0.877-5.167-1.739
			c-1.49-0.859-2.667-2.086-3.527-3.676c-0.862-1.59-1.292-3.677-1.292-6.26V99.215H513.2v-9.439h8.545V74.374h14.109v15.401
			H546.188z"/>
		<path fill="#14171A" d="M578.679,89.775v9.439h-10.333v25.437c0,2.385,0.397,3.975,1.192,4.77s2.385,1.192,4.769,1.192
			c0.795,0,1.556-0.033,2.286-0.1c0.728-0.065,1.423-0.164,2.086-0.298v10.93c-1.192,0.198-2.518,0.331-3.975,0.397
			c-1.458,0.065-2.881,0.1-4.272,0.1c-2.186,0-4.257-0.149-6.21-0.447c-1.955-0.298-3.677-0.877-5.167-1.739
			c-1.49-0.859-2.667-2.086-3.527-3.676c-0.861-1.59-1.292-3.677-1.292-6.26V99.215h-8.545v-9.439h8.545V74.374h14.109v15.401
			H578.679z"/>
		<path fill="#14171A" d="M598.054,128.824c2.119,2.055,5.167,3.081,9.141,3.081c2.847,0,5.299-0.712,7.353-2.137
			c2.052-1.424,3.312-2.932,3.775-4.521h12.42c-1.987,6.16-5.035,10.566-9.141,13.215c-4.108,2.65-9.076,3.975-14.904,3.975
			c-4.042,0-7.686-0.646-10.93-1.938c-3.247-1.292-5.996-3.13-8.247-5.515c-2.253-2.385-3.992-5.232-5.217-8.546
			c-1.227-3.312-1.838-6.955-1.838-10.93c0-3.841,0.628-7.418,1.888-10.73c1.257-3.312,3.046-6.177,5.365-8.595
			c2.318-2.418,5.083-4.322,8.297-5.714c3.212-1.391,6.772-2.087,10.682-2.087c4.372,0,8.18,0.845,11.427,2.534
			c3.244,1.689,5.912,3.959,7.998,6.807c2.087,2.849,3.593,6.095,4.521,9.737c0.927,3.644,1.257,7.452,0.993,11.427h-37.062
			C594.774,123.459,595.933,126.772,598.054,128.824z M614.001,101.798c-1.689-1.854-4.257-2.782-7.7-2.782
			c-2.253,0-4.124,0.382-5.614,1.143c-1.49,0.763-2.683,1.707-3.577,2.832c-0.894,1.127-1.524,2.319-1.888,3.577
			c-0.365,1.259-0.581,2.385-0.646,3.379h22.952C616.865,106.369,615.69,103.653,614.001,101.798z"/>
		<path fill="#14171A" d="M650.913,89.775v9.539h0.199c0.661-1.59,1.555-3.063,2.683-4.422c1.125-1.357,2.417-2.517,3.875-3.478
			c1.456-0.96,3.014-1.705,4.67-2.236c1.655-0.529,3.378-0.795,5.167-0.795c0.927,0,1.953,0.167,3.08,0.497v13.116
			c-0.663-0.132-1.458-0.249-2.385-0.348c-0.928-0.1-1.822-0.149-2.683-0.149c-2.583,0-4.77,0.432-6.558,1.292
			c-1.789,0.861-3.229,2.037-4.322,3.527c-1.093,1.49-1.873,3.229-2.335,5.216c-0.464,1.987-0.696,4.141-0.696,6.459v23.151h-14.109
			v-51.37H650.913z"/>
	</g>
</g>
<g id="Guides_-_DO_NOT_PRINT">
</g>
</svg>
