<svg xmlns="http://www.w3.org/2000/svg" viewBox="0 0 1266.92 902.78"><defs><style>.cls-1{fill:#006996;}.cls-2{fill:#41ad49;}.cls-3{fill:#fff;}</style></defs><title>logo</title><g id="Layer_2" data-name="Layer 2"><g id="Layer_1-2" data-name="Layer 1"><rect class="cls-1" width="1266.92" height="755.97" rx="20"/><path class="cls-2" d="M405.77,268.23H0V115.91H405.77a21.33,21.33,0,0,1,18.46,10.52l32.14,55.27a20.57,20.57,0,0,1,0,20.74l-32.14,55.27a21.33,21.33,0,0,1-18.46,10.52"/><path class="cls-3" d="M44,146.44a2.55,2.55,0,0,1,2.55-2.55h54.69a2.55,2.55,0,0,1,2.55,2.55v11a2.55,2.55,0,0,1-2.55,2.56H61.44v22H94.63a2.64,2.64,0,0,1,2.55,2.55v11.16a2.55,2.55,0,0,1-2.55,2.55H61.44v23.51h39.77a2.55,2.55,0,0,1,2.55,2.56v11a2.55,2.55,0,0,1-2.55,2.56H46.52A2.56,2.56,0,0,1,44,235.39Z"/><path class="cls-3" d="M120.29,146.44a2.55,2.55,0,0,1,2.55-2.55h12.37a2.64,2.64,0,0,1,2.55,2.55v75.38H172a2.55,2.55,0,0,1,2.55,2.56v11A2.55,2.55,0,0,1,172,238H122.84a2.56,2.56,0,0,1-2.55-2.56Z"/><path class="cls-3" d="M185.59,146.44a2.55,2.55,0,0,1,2.55-2.55h54.69a2.55,2.55,0,0,1,2.55,2.55v11a2.55,2.55,0,0,1-2.55,2.56H203.06v22h33.19a2.64,2.64,0,0,1,2.55,2.55v11.16a2.55,2.55,0,0,1-2.55,2.55H203.06v23.51h39.77a2.55,2.55,0,0,1,2.55,2.56v11a2.55,2.55,0,0,1-2.55,2.56H188.14a2.56,2.56,0,0,1-2.55-2.56Z"/><path class="cls-3" d="M303.16,142.55c13.57,0,23.38,4.3,32.52,12.49a2.5,2.5,0,0,1,.13,3.77l-8.19,8.46a2.15,2.15,0,0,1-3.36,0,31.82,31.82,0,0,0-20.7-7.93c-17.19,0-30,14.38-30,31.31s12.9,31,30.1,31A32.26,32.26,0,0,0,324.26,214a2.47,2.47,0,0,1,3.36,0l8.33,8.6a2.57,2.57,0,0,1-.14,3.63,46.13,46.13,0,0,1-32.65,13,48.37,48.37,0,1,1,0-96.74Z"/><path class="cls-3" d="M368.73,160H348.17a2.56,2.56,0,0,1-2.55-2.56v-11a2.55,2.55,0,0,1,2.55-2.55h58.72a2.55,2.55,0,0,1,2.55,2.55v11a2.55,2.55,0,0,1-2.55,2.56H386.33v75.37a2.64,2.64,0,0,1-2.55,2.56H371.29a2.65,2.65,0,0,1-2.56-2.56Z"/><path class="cls-2" d="M2.09,891.32l3.82-6.57A2.45,2.45,0,0,1,9.52,884c.53.31,9.12,6.57,16,6.57,5.52,0,9.65-3.6,9.65-8.16,0-5.41-4.56-9.13-13.47-12.73-10-4-19.93-10.4-19.93-22.91,0-9.44,7-20.36,23.86-20.36a37.34,37.34,0,0,1,21.21,7.1,2.63,2.63,0,0,1,.64,3.5l-4,6.05c-.85,1.27-2.44,2.12-3.72,1.27-.84-.53-8.9-5.83-14.74-5.83-6,0-9.33,4-9.33,7.42,0,5,3.92,8.38,12.51,11.88,10.29,4.14,22.17,10.29,22.17,24,0,10.92-9.44,21-24.39,21-13.37,0-21.22-6.26-23.34-8.27C1.67,893.55,1.14,893,2.09,891.32Z"/><path class="cls-2" d="M60.85,829.49a2.08,2.08,0,0,1,2-2h9.87a2,2,0,0,1,2,2V857.6h34.58V829.49a2,2,0,0,1,2-2h9.76a2.08,2.08,0,0,1,2,2V899.7a2.09,2.09,0,0,1-2,2h-9.76a2,2,0,0,1-2-2V870.43H74.74V899.7a2,2,0,0,1-2,2H62.86a2.09,2.09,0,0,1-2-2Z"/><path class="cls-2" d="M172,826.42a38.18,38.18,0,1,1-38.08,38.28A38.11,38.11,0,0,1,172,826.42ZM172,889a24.4,24.4,0,1,0-24.29-24.29A24.44,24.44,0,0,0,172,889Z"/><path class="cls-2" d="M221,829.49a2,2,0,0,1,2-2h30.33a23,23,0,0,1,23.12,22.8c0,9.76-6.47,17.71-15.69,21.42l14.53,26.94a2,2,0,0,1-1.81,3.08H262.36a1.81,1.81,0,0,1-1.7-1l-14.11-28.1H234.78v27a2.09,2.09,0,0,1-2,2H223a2,2,0,0,1-2-2Zm31.18,31.82a10.8,10.8,0,0,0,10.5-10.82,10.55,10.55,0,0,0-10.5-10.29H234.89v21.11Z"/><path class="cls-2" d="M288.55,829.49a2,2,0,0,1,2-2h43.16a2,2,0,0,1,2,2v8.7a2,2,0,0,1-2,2H302.34v17.4h26.19a2.08,2.08,0,0,1,2,2v8.81a2,2,0,0,1-2,2H302.34V889h31.39a2,2,0,0,1,2,2v8.69a2,2,0,0,1-2,2H290.57a2,2,0,0,1-2-2Z"/><path class="cls-2" d="M347.73,829.49a2,2,0,0,1,2-2h9.75a2.09,2.09,0,0,1,2,2V889h27a2,2,0,0,1,2,2v8.69a2,2,0,0,1-2,2H349.75a2,2,0,0,1-2-2Z"/><path class="cls-2" d="M398.21,829.49a2.09,2.09,0,0,1,2-2h9.86a2.09,2.09,0,0,1,2,2V899.7a2.1,2.1,0,0,1-2,2h-9.86a2.1,2.1,0,0,1-2-2Z"/><path class="cls-2" d="M428.33,828.33a2,2,0,0,1,2-1.91H433l44.12,46.87h.1v-43.8a2,2,0,0,1,2-2H489a2.08,2.08,0,0,1,2,2v71.38a2,2,0,0,1-2,1.91h-2.55L442.12,854.1H442v45.6a2,2,0,0,1-2,2h-9.65a2.1,2.1,0,0,1-2-2Z"/><path class="cls-2" d="M507.13,829.49a2,2,0,0,1,2-2h43.16a2,2,0,0,1,2,2v8.7a2,2,0,0,1-2,2H520.92v17.4h26.2a2.08,2.08,0,0,1,2,2v8.81a2,2,0,0,1-2,2h-26.2V889h31.39a2,2,0,0,1,2,2v8.69a2,2,0,0,1-2,2H509.15a2,2,0,0,1-2-2Z"/><path class="cls-2" d="M619.55,826.42c10.71,0,18.46,3.39,25.67,9.86a2,2,0,0,1,.1,3l-6.47,6.68a1.69,1.69,0,0,1-2.65,0,25.1,25.1,0,0,0-16.33-6.26c-13.58,0-23.65,11.35-23.65,24.71s10.18,24.5,23.76,24.5a25.41,25.41,0,0,0,16.22-6,2,2,0,0,1,2.65,0l6.58,6.79a2,2,0,0,1-.11,2.86,36.39,36.39,0,0,1-25.77,10.29,38.18,38.18,0,1,1,0-76.36Z"/><path class="cls-2" d="M656.14,829.49a2.08,2.08,0,0,1,2-2H668a2.08,2.08,0,0,1,2,2V899.7a2.09,2.09,0,0,1-2,2h-9.86a2.09,2.09,0,0,1-2-2Z"/><path class="cls-2" d="M696.23,840.2H680a2,2,0,0,1-2-2v-8.7a2,2,0,0,1,2-2h46.35a2,2,0,0,1,2,2v8.7a2,2,0,0,1-2,2H710.12v59.5a2.09,2.09,0,0,1-2,2h-9.87a2.09,2.09,0,0,1-2-2Z"/><path class="cls-2" d="M753.92,866l-24.18-35.43a2,2,0,0,1,1.7-3.07h10.82a2.1,2.1,0,0,1,1.69.95l17,24.4,17-24.4a2.12,2.12,0,0,1,1.7-.95h10.92a2,2,0,0,1,1.7,3.07l-24.5,35.32V899.7a2.09,2.09,0,0,1-2,2h-9.76a2,2,0,0,1-2-2Z"/><path class="cls-2" d="M851.6,826.42c10.71,0,18.46,3.39,25.67,9.86a2,2,0,0,1,.1,3l-6.47,6.68a1.69,1.69,0,0,1-2.65,0,25.1,25.1,0,0,0-16.33-6.26c-13.58,0-23.65,11.35-23.65,24.71s10.18,24.5,23.75,24.5a25.41,25.41,0,0,0,16.23-6,2,2,0,0,1,2.65,0l6.58,6.79a2,2,0,0,1-.11,2.86,36.39,36.39,0,0,1-25.77,10.29,38.18,38.18,0,1,1,0-76.36Z"/><path class="cls-2" d="M920.64,826.42a38.18,38.18,0,1,1-38.07,38.28A38.11,38.11,0,0,1,920.64,826.42Zm0,62.57a24.4,24.4,0,1,0-24.28-24.29A24.44,24.44,0,0,0,920.64,889Z"/><path class="cls-2" d="M968.58,829.49a2.08,2.08,0,0,1,2-2h10.08a2,2,0,0,1,2,2v43.38c0,9,6.16,16.12,15.38,16.12s15.49-7.1,15.49-16V829.49a2,2,0,0,1,2-2h10.08a2.08,2.08,0,0,1,2,2v44.12a29.54,29.54,0,0,1-59.07,0Z"/><path class="cls-2" d="M1042.71,828.33a2,2,0,0,1,2-1.91h2.65l44.12,46.87h.11v-43.8a2,2,0,0,1,2-2h9.76a2.08,2.08,0,0,1,2,2v71.38a2,2,0,0,1-2,1.91h-2.55L1056.5,854.1h-.11v45.6a2,2,0,0,1-2,2h-9.65a2.1,2.1,0,0,1-2-2Z"/><path class="cls-2" d="M1154.39,826.42c10.71,0,18.46,3.39,25.67,9.86a2,2,0,0,1,.1,3l-6.47,6.68a1.69,1.69,0,0,1-2.65,0,25.1,25.1,0,0,0-16.33-6.26c-13.58,0-23.65,11.35-23.65,24.71s10.18,24.5,23.76,24.5a25.41,25.41,0,0,0,16.22-6,2,2,0,0,1,2.65,0l6.58,6.79a2,2,0,0,1-.11,2.86,36.39,36.39,0,0,1-25.77,10.29,38.18,38.18,0,1,1,0-76.36Z"/><path class="cls-2" d="M1191,829.49a2.08,2.08,0,0,1,2-2h9.87a2.08,2.08,0,0,1,2,2V899.7a2.09,2.09,0,0,1-2,2H1193a2.09,2.09,0,0,1-2-2Z"/><path class="cls-2" d="M1221.1,829.49a2,2,0,0,1,2-2h9.76a2.09,2.09,0,0,1,2,2V889h27a2,2,0,0,1,2,2v8.69a2,2,0,0,1-2,2h-38.82a2,2,0,0,1-2-2Z"/><path class="cls-3" d="M210.69,337c47.72,0,82.21,15.12,114.34,43.94a8.78,8.78,0,0,1,.47,13.23l-28.82,29.76c-3.31,3.78-8,3.78-11.81,0-19.85-17.48-46.3-27.87-72.76-27.87-60.48,0-105.36,50.55-105.36,110.08,0,59.06,45.36,109.14,105.83,109.14,28.35,0,52.44-10.87,72.29-26.93a8.69,8.69,0,0,1,11.81,0L326,618.59c3.78,3.3,2.84,9.45-.47,12.75-32.13,31.18-72.76,45.83-114.81,45.83-94.49,0-170.56-75.12-170.56-169.61A170.19,170.19,0,0,1,210.69,337Z"/><path class="cls-3" d="M359.51,350.7a9.3,9.3,0,0,1,9-9h43.94a9,9,0,0,1,9,9V475.9h154V350.7a9,9,0,0,1,9-9h43.47a9.3,9.3,0,0,1,9,9V663.47a9.3,9.3,0,0,1-9,9H584.4a9,9,0,0,1-9-9V533.07h-154v130.4a9,9,0,0,1-9,9H368.49a9.3,9.3,0,0,1-9-9Z"/><path class="cls-3" d="M675.58,350.7a9,9,0,0,1,9-9H876.85a9,9,0,0,1,9,9v38.74a9,9,0,0,1-9,9H737V475.9H853.7a9.29,9.29,0,0,1,9,9v39.21a9,9,0,0,1-9,9H737v82.68H876.85a9,9,0,0,1,9,9v38.74a9,9,0,0,1-9,9H684.56a9,9,0,0,1-9-9Z"/><path class="cls-3" d="M925,345.5c0-4.72,4.25-8.5,9-8.5h11.81l196.54,208.83h.48V350.7a9,9,0,0,1,9-9h43.47a9.31,9.31,0,0,1,9,9v318c0,4.72-4.26,8.5-9,8.5H1184L986.46,460.31H986V663.47a9,9,0,0,1-9,9H934a9.3,9.3,0,0,1-9-9Z"/><path class="cls-3" d="M505.14,105.08A5,5,0,0,1,510,100h63.45c51.67,0,94,42,94,93.44a94.09,94.09,0,0,1-94,94H510a5,5,0,0,1-4.82-5.09Zm65.05,149.66c34.81,0,60.24-26.24,60.24-61.31,0-34.81-25.43-61-60.24-61H539.67V254.74Z"/><path class="cls-3" d="M655.6,280.44l83.26-180.18a4.8,4.8,0,0,1,4.55-3h2.68a4.54,4.54,0,0,1,4.55,3L833.1,280.44c1.61,3.48-.54,7-4.55,7H805.26c-4,0-5.89-1.61-7.77-5.36l-13.12-28.91h-80L691.2,282a8.07,8.07,0,0,1-7.76,5.36H660.15C656.13,287.4,654,283.92,655.6,280.44Zm115.66-57-26.78-58.9h-.8l-26.24,58.9Z"/><path class="cls-3" d="M785.18,107c-1.61-3.48.53-7,4.55-7H817a4.94,4.94,0,0,1,4.56,3L873,218.06h1.87l51.41-115.12a4.92,4.92,0,0,1,4.55-3h27.31c4,0,6.15,3.48,4.55,7l-83,180.18a4.8,4.8,0,0,1-4.55,2.95h-2.68a4.81,4.81,0,0,1-4.55-2.95Z"/><path class="cls-3" d="M976.33,105.08a5.27,5.27,0,0,1,5.09-5.09h24.9a5.27,5.27,0,0,1,5.08,5.09V282.31a5.27,5.27,0,0,1-5.08,5.09h-24.9a5.27,5.27,0,0,1-5.09-5.09Z"/><path class="cls-3" d="M1039,105.08a5,5,0,0,1,4.82-5.09h63.45c51.67,0,94,42,94,93.44a94.09,94.09,0,0,1-94,94H1043.8a5,5,0,0,1-4.82-5.09Zm65,149.66c34.81,0,60.24-26.24,60.24-61.31,0-34.81-25.43-61-60.24-61h-30.52V254.74Z"/></g></g></svg>